<svg xmlns="http://www.w3.org/2000/svg" width="1260" height="945" viewBox="0 0 1260 945"><rect width="1260" height="945" fill="#f5f1e7"/><circle cx="1180" cy="60" r="370" fill="#e8c5aa"/><text x="80" y="105" font-size="18" letter-spacing="4" font-family="sans-serif" fill="#45624f">WEBSITE CHECKUP</text><text x="75" y="287" font-size="82" font-family="Georgia,serif" fill="#244738">Small fixes.</text><text x="75" y="389" font-size="82" font-family="Georgia,serif" fill="#244738">A better website.</text><text x="81" y="481" font-size="25" font-family="sans-serif" fill="#526553">Review + 3 agreed frontend fixes</text><text x="81" y="605" font-size="18" font-family="sans-serif" letter-spacing="2" fill="#526553">DEFINED STARTING PACKAGE</text><text x="78" y="700" font-size="75" font-family="Georgia,serif" fill="#244738">US$195</text><path d="M80 800h1100" stroke="#c6cebb"/><text x="80" y="860" font-size="19" font-family="sans-serif" fill="#45624f">HÉCTOR R. SEPÚLVEDA A. / WEB &amp; DATA</text><rect x="815" y="290" width="315" height="385" rx="18" fill="#fffdf4" stroke="#244738" stroke-width="2"/><text x="847" y="345" font-size="19" font-family="sans-serif" fill="#244738">THE FIX LIST</text><path d="M845 385h250" stroke="#c9cfbf"/><g fill="none" stroke="#244738" stroke-width="5" stroke-linecap="round" stroke-linejoin="round"><path d="m848 427 9 9 18-22m-27 89 9 9 18-22m-27 89 9 9 18-22"/></g><g stroke="#91a387" stroke-width="9" stroke-linecap="round"><path d="M900 427h185M900 503h150M900 579h175"/></g></svg>