<svg xmlns="http://www.w3.org/2000/svg" width="1260" height="945" viewBox="0 0 1260 945" role="img" aria-labelledby="title desc"><title id="title">PDF text to Excel</title><desc id="desc">A source page and an Excel table with matching lines and page references.</desc><rect width="1260" height="945" fill="#e8eddf"/><text x="90" y="116" fill="#526b64" font-family="Arial,sans-serif" font-size="22" letter-spacing="4">CHECKABLE EXTRACTION SAMPLE</text><text x="86" y="222" fill="#153b35" font-family="Arial,sans-serif" font-size="68" font-weight="bold">PDF text → Excel rows</text><rect x="90" y="296" width="443" height="465" rx="18" fill="white"/><rect x="665" y="296" width="505" height="465" rx="18" fill="white"/><text x="122" y="350" fill="#153b35" font-family="Arial,sans-serif" font-size="22" font-weight="bold">SOURCE PDF</text><text x="699" y="350" fill="#153b35" font-family="Arial,sans-serif" font-size="22" font-weight="bold">EDITABLE XLSX</text><g fill="#153b35" font-family="Arial,sans-serif" font-size="25"><text x="123" y="447">Reference: 0007-A</text><text x="123" y="509">Product note: café…</text><text x="123" y="571">Handling: keep…</text></g><path d="M560 521h74m-20-20 20 20-20 20" fill="none" stroke="#153b35" stroke-width="7"/><rect x="695" y="392" width="446" height="46" rx="4" fill="#153b35"/><g font-family="Arial,sans-serif" font-size="19"><g fill="white"><text x="708" y="422">Page</text><text x="773" y="422">Line</text><text x="835" y="422">Extracted text</text></g><g fill="#153b35"><text x="725" y="483">1</text><text x="787" y="483">4</text><text x="835" y="483">Reference: 0007-A</text><text x="725" y="545">1</text><text x="787" y="545">6</text><text x="835" y="545">Product note: café…</text><text x="725" y="607">1</text><text x="787" y="607">9</text><text x="835" y="607">Handling: keep…</text></g></g><path d="M695 505h446M695 567h446M695 629h446" stroke="#d9e1d6" stroke-width="2"/><text x="123" y="707" fill="#526b64" font-family="Arial,sans-serif" font-size="20">Fictional source · 2 pages</text><text x="699" y="707" fill="#526b64" font-family="Arial,sans-serif" font-size="20">28 source lines checked</text><text x="90" y="855" fill="#153b35" font-family="Arial,sans-serif" font-size="24">Download both files. Compare the result.</text></svg>
